<?xml version="1.0" encoding="UTF-8"?>
<!DOCTYPE svg PUBLIC "-//W3C//DTD SVG 1.0//EN" "http://www.w3.org/TR/2001/REC-SVG-20010904/DTD/svg10.dtd">
<!-- Creator: CorelDRAW -->
<svg xmlns="http://www.w3.org/2000/svg" xml:space="preserve" width="120.469mm" height="81.9468mm" version="1.0" style="shape-rendering:geometricPrecision; text-rendering:geometricPrecision; image-rendering:optimizeQuality; fill-rule:evenodd; clip-rule:evenodd"
viewBox="0 0 6429.72 4373.71"
 xmlns:xlink="http://www.w3.org/1999/xlink"
 xmlns:xodm="http://www.corel.com/coreldraw/odm/2003">
 <defs>
  <style type="text/css">
   <![CDATA[
    .fil0 {fill:#d2ddd4}
   ]]>
  </style>
 </defs>
 <g id="Layer_x0020_1">
  <metadata id="CorelCorpID_0Corel-Layer"/>
  <path class="fil0" d="M6336.68 3569.48c6.21,0 11.28,-5.08 11.28,-11.3 0,-6.25 -5.07,-11.33 -11.28,-11.33 -6.29,0 -11.34,5.08 -11.34,11.33 0,6.22 5.05,11.3 11.34,11.3zm-6336.68 400.07l0 -518.52c172.53,-155.28 414.57,-290.57 574.09,-379.23 103.25,-63.1 326.41,-194.13 487.1,-249.63 228.67,-86.4 490.94,-197.8 782.48,-230.18 272.28,-30.22 518.28,-34.06 831.94,68.22 300.47,97.98 471.5,220.58 651.37,375.01 200.21,123.08 611.55,289.81 994.57,-90.55 201.2,-199.89 207.9,-536.01 35.13,-761.24 -174.81,-227.86 -528.82,-263.6 -734.49,-54.83 -200.01,203.07 -130.07,602.82 172,661.04 244.04,47.01 485.33,-207.89 335.45,-438.96 -65.56,-100.98 -197.79,-140.14 -305.87,-83.56 -82.3,43.14 -127.27,142.2 -102.99,228.41 -36.06,-109.47 24.21,-232.99 137.45,-277.84 136.3,-53.89 283.78,17.15 342.62,147.31 133.45,295.2 -208.72,542.94 -476.22,431.12 -274.03,-114.61 -323.21,-490.82 -137.6,-703.12 188.25,-215.29 531.49,-232.33 751.13,-56.96 221.35,176.76 288.83,499.32 183.8,757.31 -107.7,264.47 -381.98,429.74 -661.71,444.34 -151.71,7.93 -289.89,-25.85 -409.56,-89.47 125.87,122.33 263.98,274.71 474.11,475.67 187.59,186.92 416.75,404.2 704.74,526.94 304.21,129.65 765.46,101.37 1141.73,43.32 217.3,-76.29 393.67,-369.27 223.52,-504.95 51.25,106.44 57.77,285.08 -45.61,343.77 25.15,-50.2 -36.73,-101.47 -66.97,-152.34 77.56,-23.7 26.15,-42.68 14.93,-96.21 23.35,-30.9 46.03,-8.15 69.02,-12.95 -46.3,-83.15 -43.49,-226.6 -6.47,-308.75 246.11,221.91 188.04,619.46 -148.48,725.11 336.07,-54.49 594.82,-129.82 594.82,-129.82 0,0 -306.1,91.9 -458.88,134.32 -391.16,101.43 -687.58,138.07 -908.59,128.54 -288.04,-14.67 -557.76,-115.76 -783.86,-293.84 -165.49,-124.61 -307.41,-256.62 -442.62,-388.68 167.78,230.03 230.31,488.73 205.7,735.35l-109.51 0c38.28,-305.64 -75.08,-684.23 -296.36,-931.68 -358.65,-327.28 -802.51,-606.66 -1375.11,-688.28 -273.51,-33.48 -556.03,-16.59 -814.92,41.76 -101.99,20.98 -151.98,19.6 -417.88,138.94 -265.99,119.35 -846.69,538.93 -885.14,656.68 75.43,124.08 295.53,107.7 385.87,86.37 552.53,-130.65 1128.1,-549.97 1689.91,-601.56 4.78,-0.45 9.55,-1.07 14.35,-1.41 1.7,-0.15 3.35,-0.37 5.05,-0.49 -0.06,0.11 -0.15,0.24 -0.19,0.34 119.82,-7.43 240.93,17.64 347.82,73.21 282.34,146.68 445,504.1 303.33,802.86 -138.45,291.67 -536.2,424.9 -789,192.5 -117.06,-107.65 -177.14,-279.12 -128.47,-433.72 47.34,-150.81 193.58,-267.42 354.31,-264.64 159.46,2.75 303.39,134.34 307.83,296.67 4.37,160.03 -153.3,306.72 -314.57,257.67 -157.41,-47.9 -217.41,-280 -52.27,-360.81 72.83,-35.63 163.06,-13.31 203.13,59.54 33.25,60.51 14.99,136.33 -40.31,171.17 41.74,-28.92 57.8,-88.5 37.5,-137.09 -26.77,-63.83 -98.81,-94.54 -163.98,-74.09 -149.18,46.77 -135.91,245.56 -12.14,313.31 153.15,83.79 328.37,-65.69 314.38,-226.83 -14.41,-165.71 -182.15,-278.16 -341.06,-241.76 -156.94,35.9 -268.69,184.82 -259.99,345.54 8.6,159.5 123.72,300.73 273.17,351.7 324,110.39 638.03,-205.55 598.34,-525.44 -40.52,-326.34 -363.32,-555.76 -684.12,-500.12 0,0 -127.45,12.63 -198.91,39.39 -60.91,22.76 -164.13,60.86 -242.4,100.3 -483.64,243.68 -1102.42,738.82 -1726.46,655.82zm6350.84 -416.34c13.09,6.76 45.15,1.96 38.58,-18.96 -3.46,-11.02 -15.89,-16.89 -26.38,-12.77 -10.07,3.95 -15.59,16.04 -14.52,26.32 0.04,0.52 -0.77,0.77 -0.89,0.2 -8.17,-27.9 30.79,-45.71 44.76,-18.5 5.48,10.71 1.28,21.42 -9.06,27.24 -10.51,5.88 -23.54,4.54 -32.95,-2.73 -0.43,-0.36 0,-1.06 0.45,-0.81zm-50.54 34.57c4.63,-11.14 15.78,-18.13 27.63,-18.23 0.51,0 0.62,0.83 0.15,0.9 -14.46,2.73 -36.77,26.32 -18.64,38.77 9.51,6.53 22.86,3.45 28.64,-6.25 5.48,-9.34 2.39,-22.27 -4.86,-29.68 -0.32,-0.41 0.19,-1.07 0.6,-0.73 23.63,16.96 3.95,55.02 -23.76,42.17 -11,-5.03 -14.27,-16.06 -9.76,-26.96zm-25.59 -38.05c1.54,-12.01 11.03,-18.47 22.8,-17.47 12.01,1.11 22.03,9.53 25.7,20.84 0.19,0.53 -0.55,0.89 -0.85,0.37 -6.99,-12.92 -36.19,-27.03 -42.55,-5.98 -3.29,11.03 3.65,22.85 14.65,25.34 10.54,2.43 21.91,-4.42 26.83,-13.52 0.22,-0.47 1.07,-0.21 0.85,0.3 -9,27.64 -51.22,20.45 -47.43,-9.88zm70.49 20.43c0.19,-0.51 1,-0.34 0.92,0.19 -2.2,14.54 12.65,43.37 30.37,30.37 9.3,-6.82 10.85,-20.49 3.58,-29.02 -7.01,-8.28 -20.21,-9.69 -29.62,-5.33 -0.43,0.21 -0.92,-0.51 -0.51,-0.77 23.87,-16.68 53.29,14.46 31.99,36.38 -8.42,8.66 -19.89,8.17 -28.68,0.25 -8.98,-8.08 -11.88,-20.83 -8.06,-32.07zm-1510.6 -535.07c35.49,18.38 122.87,5.33 104.91,-51.69 -9.44,-30.03 -43.19,-45.92 -71.72,-34.68 -27.49,10.77 -42.53,43.63 -39.63,71.62 0.13,1.39 -2.03,1.98 -2.43,0.57 -22.05,-76.01 83.9,-124.38 121.77,-50.42 15.02,29.28 3.55,58.46 -24.5,74.15 -28.68,16.04 -64.1,12.37 -89.68,-7.43 -1.11,-0.87 0,-2.82 1.28,-2.11zm-15.37 46.03c0.45,-1.33 2.66,-0.92 2.43,0.53 -5.97,39.52 34.48,118.03 82.73,82.7 25.33,-18.58 29.49,-55.66 9.7,-79.04 -19.03,-22.58 -55,-26.24 -80.59,-14.48 -1.24,0.59 -2.5,-1.26 -1.3,-2.11 64.86,-45.36 144.79,39.35 86.93,99.04 -22.88,23.63 -54.17,22.17 -78.08,0.66 -24.38,-21.97 -32.35,-56.69 -21.82,-87.29zm-191.79 -55.54c4.07,-32.59 29.96,-50.31 61.99,-47.49 32.71,2.94 59.93,25.91 69.93,56.65 0.43,1.34 -1.58,2.28 -2.26,1.04 -18.96,-35.19 -98.48,-73.62 -115.8,-16.34 -9.08,30.09 9.85,62.21 39.75,69.03 28.81,6.57 59.72,-12.13 73.13,-36.86 0.62,-1.24 2.75,-0.49 2.3,0.86 -24.57,75.24 -139.4,55.6 -129.03,-26.89zm1709.59 519.11c-0.39,0.32 -0.94,-0.28 -0.58,-0.66 10.49,-10.3 15.96,-42.3 -6.03,-42.57 -11.54,-0.13 -21,9.83 -20.37,21.07 0.69,10.85 10.41,19.84 20.52,22.06 0.51,0.1 0.43,0.92 -0.07,0.89 -29.09,-0.98 -33.84,-43.51 -3.66,-48.26 11.92,-1.92 20.79,5.44 23.07,17 2.32,11.84 -3.01,23.82 -12.88,30.47zm-1541.14 -526.92c17.02,0 30.8,13.78 30.8,30.79 0,16.98 -13.78,30.76 -30.8,30.76 -16.97,0 -30.75,-13.78 -30.75,-30.76 0,-17 13.78,-30.79 30.75,-30.79zm-3403.75 -54.85c1.68,29.45 28.2,53.98 55.72,59.95 1.39,0.28 1.24,2.54 -0.17,2.49 -79.12,-2.73 -92.07,-118.49 -9.98,-131.41 32.44,-5.16 56.6,14.84 62.78,46.41 6.29,32.2 -8.21,64.7 -34.99,82.87 -1.17,0.79 -2.67,-0.92 -1.65,-1.92 28.6,-27.94 43.42,-115.04 -16.42,-115.75 -31.4,-0.36 -56.98,26.75 -55.28,57.37zm3304.93 166.12c12.63,-30.24 42.8,-49.25 75.14,-49.48 1.39,0 1.71,2.18 0.28,2.45 -39.31,7.46 -99.98,71.58 -50.63,105.44 25.91,17.76 62.27,9.45 77.82,-17 14.97,-25.47 6.54,-60.55 -13.04,-80.81 -0.96,-0.98 0.39,-2.81 1.56,-1.92 64.28,46.15 10.8,149.63 -64.68,114.84 -29.85,-13.76 -38.87,-43.81 -26.46,-73.51zm1099.2 1208.18c3.71,-49.01 56.07,-43.78 83.47,-22.86 -28.86,26.55 -58.22,62.29 -83.47,22.86zm-5258.67 -994.11c-33.2,-73.53 46.26,-107.06 102.12,-98.53 -20.63,60.91 -34.78,135.41 -102.12,98.53zm3701.69 958.96c-6.23,0 -11.31,-5.1 -11.31,-11.35 0,-6.23 5.09,-11.28 11.31,-11.28 6.25,0 11.28,5.05 11.28,11.28 0,6.25 -5.03,11.35 -11.28,11.35zm45.27 32.5c-8.38,8.66 -19.9,8.13 -28.64,0.21 -8.98,-8.04 -11.9,-20.79 -8.06,-32.05 0.17,-0.49 1,-0.32 0.91,0.21 -2.17,14.5 12.65,43.37 30.41,30.35 9.34,-6.82 10.85,-20.45 3.56,-29.03 -6.99,-8.27 -20.22,-9.66 -29.58,-5.29 -0.48,0.19 -0.98,-0.53 -0.49,-0.81 23.8,-16.66 53.17,14.5 31.9,36.42zm-3715.34 -890.5c-20.84,-12.16 -23.2,-33.09 -25.76,-53.99 49.89,20.36 67.11,56.38 51.63,108 -63.26,0.69 -127.74,-80.06 -58.67,-88.08 -2.9,23.35 15.91,59.54 32.8,34.06zm5223.27 929.64l-10.41 0c1.02,-3.24 2.28,-6.44 3.56,-9.62 2.65,3.24 4.93,6.46 6.85,9.62zm-5288.94 -997.79c-23.16,9.68 -40.5,145.46 -142.02,84.56 -9.4,-118.25 188.32,-113.61 142.02,-84.56zm862.01 -235.56c12.65,-30.27 42.78,-49.24 75.14,-49.5 1.39,-0.02 1.71,2.24 0.28,2.52 -39.3,7.4 -99.95,71.55 -50.65,105.36 25.94,17.79 62.31,9.45 77.86,-16.95 14.95,-25.5 6.51,-60.61 -13.03,-80.85 -0.98,-0.98 0.38,-2.79 1.53,-1.96 64.26,46.17 10.81,149.69 -64.68,114.85 -29.86,-13.74 -38.84,-43.79 -26.45,-73.49zm2929.45 1121.7c5.53,10.72 1.3,21.48 -9.02,27.27 -10.5,5.85 -23.52,4.54 -32.97,-2.75 -0.36,-0.34 0,-1.05 0.49,-0.79 13.07,6.76 45.15,1.98 38.58,-19 -3.49,-10.99 -15.91,-16.87 -26.4,-12.71 -10.07,3.93 -15.59,15.99 -14.53,26.3 0.05,0.49 -0.77,0.73 -0.91,0.19 -8.11,-27.92 30.86,-45.7 44.76,-18.51zm1481.04 110.62c-0.22,0.34 -0.39,0.68 -0.62,1.04l-20.01 0c3.93,-4.03 10.67,-5.1 20.63,-1.04zm-1535.34 -37.15c5.5,-9.32 2.37,-22.24 -4.8,-29.66 -0.36,-0.39 0.13,-1.05 0.55,-0.73 23.63,16.95 3.99,55.02 -23.71,42.17 -11.02,-5.03 -14.33,-16.1 -9.77,-26.96 4.63,-11.13 15.74,-18.11 27.6,-18.19 0.51,0 0.66,0.77 0.11,0.94 -14.42,2.65 -36.74,26.25 -18.58,38.67 9.53,6.57 22.88,3.52 28.6,-6.25zm-63.31 -53.21c1.47,-11.99 11.05,-18.49 22.73,-17.47 12.07,1.09 22.09,9.51 25.76,20.85 0.12,0.47 -0.6,0.84 -0.86,0.37 -6.95,-12.93 -36.17,-27.08 -42.55,-6.04 -3.31,11.07 3.63,22.91 14.63,25.42 10.58,2.41 21.94,-4.48 26.84,-13.59 0.3,-0.39 1.05,-0.19 0.86,0.36 -9.02,27.6 -51.22,20.43 -47.39,-9.88zm52.06 -52.57c11.96,-1.85 20.82,5.44 23.12,17.04 2.26,11.84 -3.03,23.8 -12.9,30.49 -0.43,0.3 -0.96,-0.32 -0.6,-0.72 10.51,-10.26 15.97,-42.29 -5.98,-42.54 -11.62,-0.13 -20.96,9.87 -20.36,21.05 0.64,10.9 10.38,19.87 20.51,22.05 0.47,0.15 0.41,0.96 -0.11,0.94 -29.03,-1.02 -33.82,-43.57 -3.67,-48.31zm989.5 -87.72c-110.58,-264.11 306.95,-494.46 495.46,-448.25 -22.59,170.17 -184.97,526.03 -478.36,464.07 95.78,-51.14 191.17,-183.83 219.36,-238.3 -57.16,23.09 -209.2,153 -236.45,222.48zm-1868.35 -1410.76c0.11,0.91 -1.41,1.32 -1.68,0.36 -15.05,-51.93 57.39,-85.03 83.28,-34.44 10.26,19.98 2.39,39.94 -16.78,50.67 -19.56,10.96 -43.79,8.44 -61.29,-5.1 -0.79,-0.54 0,-1.86 0.91,-1.43 24.23,12.58 83.94,3.69 71.7,-35.36 -6.46,-20.47 -29.58,-31.33 -49.04,-23.69 -18.78,7.37 -29.06,29.82 -27.1,48.99zm-71.51 124.57c-20.47,-9.43 -26.59,-29.92 -18.15,-50.23 8.66,-20.71 29.3,-33.72 51.37,-33.85 0.98,-0.04 1.24,1.51 0.22,1.71 -26.87,5.05 -68.33,48.9 -34.61,72.06 17.74,12.14 42.63,6.46 53.21,-11.66 10.25,-17.36 4.47,-41.39 -8.94,-55.22 -0.64,-0.66 0.28,-1.9 1.11,-1.39 43.95,31.61 7.34,102.41 -44.21,78.59zm49.46 -84.28c-11.64,0 -21.05,-9.4 -21.05,-21 0,-11.61 9.41,-21.09 21.05,-21.09 11.64,0 21.03,9.47 21.03,21.09 0,11.6 -9.4,21 -21.03,21zm84.26 60.5c-15.65,16.13 -37.02,15.12 -53.36,0.45 -16.72,-15.02 -22.14,-38.76 -14.95,-59.67 0.32,-0.96 1.81,-0.66 1.68,0.34 -4.12,27.02 23.52,80.7 56.53,56.54 17.34,-12.73 20.2,-38.05 6.68,-54.06 -13.07,-15.42 -37.62,-17.94 -55.13,-9.91 -0.83,0.39 -1.7,-0.88 -0.87,-1.45 44.33,-30.98 98.98,26.91 59.42,67.75zm-102.52 -194.99c22.2,-3.49 38.75,10.15 42.95,31.75 4.33,22.03 -5.59,44.23 -23.97,56.67 -0.79,0.55 -1.77,-0.62 -1.09,-1.28 19.54,-19.19 29.65,-78.69 -11.2,-79.18 -21.5,-0.3 -39.05,18.29 -37.85,39.16 1.16,20.19 19.32,36.94 38.12,41.03 0.92,0.19 0.83,1.75 -0.17,1.73 -54.1,-1.88 -62.95,-81.02 -6.8,-89.89zm-96.95 97.78c2.79,-22.32 20.5,-34.4 42.42,-32.46 22.33,1.97 40.95,17.66 47.81,38.73 0.3,0.89 -1.09,1.56 -1.55,0.68 -12.97,-24.04 -67.33,-50.31 -79.19,-11.12 -6.22,20.56 6.76,42.51 27.17,47.18 19.72,4.52 40.86,-8.3 50.01,-25.21 0.45,-0.83 1.9,-0.37 1.58,0.59 -16.77,51.44 -95.31,38 -88.25,-18.38zm824.22 -1684.98c13.01,6.76 45.13,2.01 38.54,-18.94 -3.43,-11.03 -15.87,-16.89 -26.38,-12.75 -10.07,3.91 -15.59,15.99 -14.55,26.3 0.06,0.51 -0.69,0.69 -0.86,0.21 -8.13,-27.89 30.82,-45.72 44.75,-18.55 5.5,10.77 1.28,21.48 -9.01,27.26 -10.53,5.84 -23.52,4.52 -32.95,-2.73 -0.42,-0.3 0,-1 0.47,-0.81zm759.44 1962.04c-1.21,0.77 -2.7,-0.89 -1.64,-1.9 28.56,-28 43.38,-115.08 -16.42,-115.8 -31.4,-0.36 -57.05,26.76 -55.3,57.35 1.7,29.5 28.19,54.02 55.74,59.99 1.33,0.28 1.22,2.56 -0.21,2.49 -79.12,-2.71 -92.07,-118.51 -10,-131.46 32.48,-5.07 56.62,14.89 62.84,46.45 6.29,32.19 -8.21,64.71 -35,82.88zm-784.97 -1957.07c0,-6.21 5.07,-11.34 11.32,-11.34 6.23,0 11.29,5.12 11.29,11.34 0,6.23 -5.07,11.31 -11.29,11.31 -6.26,0 -11.32,-5.08 -11.32,-11.31zm11.69 -13.44c-0.41,0.3 -0.96,-0.28 -0.58,-0.73 10.49,-10.28 15.96,-42.27 -6.03,-42.53 -11.56,-0.12 -20.98,9.83 -20.36,21.07 0.68,10.85 10.38,19.87 20.51,22.07 0.49,0.09 0.45,0.9 -0.09,0.86 -29.09,-0.98 -33.82,-43.51 -3.63,-48.3 11.93,-1.9 20.8,5.48 23.08,17.04 2.28,11.84 -3.05,23.81 -12.9,30.52zm8.21 25.38c0.15,-0.45 0.96,-0.27 0.85,0.26 -2.18,14.52 12.69,43.37 30.41,30.37 9.32,-6.84 10.83,-20.49 3.6,-29.07 -7.02,-8.29 -20.22,-9.64 -29.62,-5.33 -0.45,0.25 -0.94,-0.47 -0.45,-0.77 23.8,-16.66 53.18,14.46 31.92,36.43 -8.4,8.68 -19.92,8.15 -28.68,0.21 -8.98,-8.06 -11.92,-20.81 -8.02,-32.1zm-1209.79 1478.5c27.87,13.39 167.09,-82.23 194.39,61.27 -101.02,105.74 -259.21,-79.98 -194.39,-61.27zm1164.89 -1460.9c4.63,-11.07 15.68,-18.06 27.6,-18.15 0.51,0 0.64,0.81 0.11,0.9 -14.42,2.73 -36.75,26.32 -18.62,38.79 9.55,6.52 22.9,3.41 28.6,-6.27 5.5,-9.38 2.41,-22.27 -4.78,-29.67 -0.36,-0.44 0.15,-1.09 0.58,-0.77 23.63,16.98 3.92,55 -23.76,42.21 -11.01,-5.08 -14.29,-16.08 -9.73,-27.04zm-25.61 -38c1.51,-11.96 11.05,-18.45 22.76,-17.43 12.03,1.05 22.05,9.53 25.76,20.82 0.11,0.49 -0.62,0.83 -0.86,0.38 -6.95,-12.94 -36.19,-27.04 -42.55,-5.97 -3.35,11.02 3.6,22.86 14.59,25.33 10.62,2.41 21.97,-4.44 26.87,-13.54 0.26,-0.49 1.07,-0.17 0.86,0.32 -9.02,27.64 -51.23,20.41 -47.43,-9.91zm-765.22 1223.73c-8.42,8.68 -19.92,8.13 -28.69,0.25 -8.96,-8.08 -11.86,-20.84 -8.02,-32.1 0.17,-0.49 0.96,-0.34 0.91,0.22 -2.23,14.5 12.63,43.37 30.37,30.35 9.32,-6.83 10.86,-20.41 3.6,-29.03 -7.05,-8.3 -20.22,-9.66 -29.64,-5.33 -0.43,0.21 -0.9,-0.45 -0.45,-0.79 23.82,-16.61 53.19,14.48 31.93,36.43zm1523.96 -49.95c-30.71,-0.25 -125.47,30.6 -151.27,57.41 -0.58,-142.68 235.51,-169.29 313.5,-112.03 -42.82,74.02 -185.31,206.96 -308.64,122.59 53.87,-5.35 123.06,-48.24 146.41,-67.97zm-1595.86 62.73c-10.99,-5.12 -14.27,-16.13 -9.7,-27.02 4.61,-11.17 15.72,-18.11 27.6,-18.19 0.51,0 0.64,0.83 0.13,0.91 -14.44,2.71 -36.77,26.34 -18.66,38.75 9.59,6.51 22.96,3.46 28.66,-6.23 5.46,-9.36 2.37,-22.29 -4.82,-29.73 -0.38,-0.34 0.19,-1.06 0.6,-0.68 23.6,16.96 3.94,54.92 -23.81,42.19zm1394.02 -134.58c12.57,-5.68 25.76,-21.79 29.79,-28.45 -7.44,2.45 -27.81,17.72 -31.82,26.32 -11.9,-34.42 43,-60.31 66.6,-52.89 -4.28,21.41 -27.83,65.32 -64.56,55.02zm87.7 300.94c23.61,4.09 58.22,-6.06 70.53,-11.71 -13.1,-3.73 -57.18,-1.75 -71.38,6.63 16.63,-61.03 120.57,-44.38 147.13,-10.75 -27.06,26.55 -103.65,66.41 -146.28,15.83zm7.74 112.69c12.95,4.78 33.67,2.66 41.21,0.72 -7,-3.48 -32.23,-6.97 -41.16,-3.67 15.81,-32.87 73.06,-12.57 84.56,9.24 -18.08,12.22 -65.71,26.91 -84.62,-6.29zm-1472.66 -396.63c11.93,-1.9 20.84,5.48 23.1,17.04 2.3,11.83 -3.01,23.82 -12.88,30.47 -0.43,0.3 -1,-0.32 -0.62,-0.66 10.53,-10.36 15.95,-42.33 -6.01,-42.59 -11.58,-0.13 -20.95,9.81 -20.33,21.07 0.66,10.85 10.4,19.87 20.47,22.05 0.51,0.13 0.47,0.94 -0.07,0.94 -29.07,-1.04 -33.82,-43.55 -3.65,-48.32zm-281.79 195.44c52.63,57.62 31.23,183.33 -32.82,126.3 23.84,-16.51 41.67,-63.53 4.33,-58.16 5.99,29.16 -11.37,48.56 -28.51,68.08 -22.22,-62.68 -3.24,-108.07 57,-136.22zm276.23 -133.36c0.28,-0.44 1.07,-0.17 0.9,0.36 -9.04,27.6 -51.25,20.41 -47.45,-9.88 1.53,-12.01 11.03,-18.47 22.78,-17.47 12.05,1.09 22.01,9.53 25.72,20.82 0.15,0.51 -0.59,0.87 -0.85,0.38 -6.95,-12.92 -36.19,-27.05 -42.53,-6.04 -3.34,11.07 3.6,22.91 14.59,25.42 10.6,2.43 21.95,-4.48 26.83,-13.57zm71.08 -29.77c5.52,10.73 1.3,21.47 -9,27.21 -10.53,5.91 -23.55,4.57 -32.97,-2.73 -0.38,-0.28 0,-1.04 0.47,-0.75 13.07,6.74 45.15,1.98 38.6,-18.98 -3.49,-11.05 -15.93,-16.89 -26.38,-12.75 -10.09,3.92 -15.61,16.02 -14.55,26.3 0.05,0.53 -0.8,0.74 -0.92,0.21 -8.1,-27.9 30.84,-45.73 44.75,-18.51zm-617.22 330.24c72.98,-31.03 153.1,-79.23 174.56,13.05 -40.39,90.96 -136.53,45.39 -174.56,-13.05zm561.55 -290.26c-6.26,0 -11.34,-5.05 -11.34,-11.28 0,-6.25 5.08,-11.35 11.34,-11.35 6.21,0 11.28,5.1 11.28,11.35 0,6.23 -5.07,11.28 -11.28,11.28zm2516.75 2110.97c29.52,-66.01 134,-5.76 100.75,-3.73 -9.15,-0.94 -30.49,23.06 -53.96,28.86l-18.85 0c-9.62,-2.71 -19.11,-10.15 -27.94,-25.14zm-2634.79 21.03c-0.43,1.39 -0.96,2.77 -1.56,4.1l-3.05 0c1.05,-1.54 2.12,-3.09 3.03,-4.67 0.45,-0.89 1.94,-0.36 1.58,0.57zm-1833.55 -462.81c-62.49,-10.11 -112.24,-100.73 -42.82,-96.8 -6.78,22.5 5.57,61.4 26.57,39.16 -18.53,-15.54 -17.27,-36.59 -16.21,-57.6 45.71,28.6 56.5,67.01 32.46,115.23zm-341.79 -1281.31c4.57,107.31 -174.26,96.61 -131.42,71.8 21.26,-7.98 41.48,-130.35 131.42,-71.8zm903.68 901.8c-49.07,42.72 -184.27,103.28 -252.21,12.2 40.03,9.44 100.36,-4.4 122.01,-12.86 -21.99,-7.72 -97.78,-8.83 -122.93,4.07 34.68,-102.81 211.09,-63.75 253.13,-3.41zm-1063.7 -861.96c3.35,-21.01 -12.46,-54.43 -28.62,-31.9 18.51,11.69 19.92,30.71 21.58,49.74 -44.53,-20.13 -58.9,-53.24 -43.16,-99.47 57.28,1.41 113.03,76.69 50.2,81.62zm-29.28 -348.22c-14.44,2.75 -36.73,26.32 -18.6,38.75 9.53,6.51 22.88,3.48 28.6,-6.26 5.51,-9.37 2.37,-22.23 -4.82,-29.67 -0.34,-0.39 0.19,-1.04 0.62,-0.72 23.61,16.96 3.93,54.98 -23.82,42.19 -10.97,-5.07 -14.25,-16.1 -9.69,-27.02 4.61,-11.13 15.7,-18.09 27.62,-18.19 0.47,0 0.6,0.79 0.09,0.9zm173.11 1741.27c182.02,8.02 379.32,41.03 551.17,102.13 143.61,51.1 283.67,117.87 402.03,213.2l-75.04 0c-20.58,-16.23 -41.71,-31.84 -63.47,-46.6 -150.1,-101.98 -322.51,-168.82 -499.03,-208.24 -183.2,-40.88 -368.96,-48.77 -555.95,-45.19 -103.55,1.97 -207.19,12.09 -309.45,28.37 -1.65,0.27 -1.96,-2.3 -0.32,-2.6 181.98,-31.37 365.35,-49.21 550.06,-41.06zm-98.68 -112.82c-3.67,-0.15 -2.75,-5.8 0.86,-5.63 464.43,19.02 924.22,121.58 1349.26,310.48 84.65,37.6 167.61,78.87 248.88,123.29l-54.7 0c-219.86,-121.07 -452.45,-220.73 -698.51,-293.46 -274.56,-81.24 -560.06,-122.5 -845.8,-134.68zm2201.97 405.66c2.81,-22.32 20.54,-34.38 42.42,-32.45 22.35,1.94 40.95,17.67 47.81,38.7 0.3,0.9 -1.09,1.58 -1.52,0.7 -13,-24.03 -67.35,-50.29 -79.19,-11.13 -2.79,9.19 -1.56,18.55 2.28,26.66l-9.61 0c-2.31,-6.48 -3.23,-14.01 -2.18,-22.48zm-1814.63 -580.41c-24.48,5.55 -64.73,136.41 -154.4,59.02 10.9,-118.09 204.95,-79.78 154.4,-59.02zm-441.28 -1476.34c0.04,0.47 -0.81,0.7 -0.94,0.15 -8.1,-27.9 30.84,-45.68 44.77,-18.49 5.52,10.73 1.28,21.47 -9.04,27.23 -10.49,5.89 -23.55,4.56 -32.93,-2.73 -0.42,-0.32 0.04,-1.06 0.45,-0.77 13.08,6.76 45.17,2 38.56,-19 -3.48,-11.03 -15.87,-16.83 -26.36,-12.72 -10.09,3.93 -15.61,16 -14.52,26.34zm597.88 1370.14c-30.73,56.51 -57.37,127.51 -117.49,79.66 -20.14,-78.12 63.89,-97.59 117.49,-79.66zm-688.15 -852.92c20.74,-54.47 35.97,-121.44 95.78,-85.84 27.6,67.67 -45.45,95.44 -95.78,85.84zm1585.49 -1319.45c-29.88,-13.8 -38.83,-43.83 -26.46,-73.49 12.65,-30.28 42.8,-49.29 75.14,-49.52 1.39,-0.04 1.75,2.22 0.28,2.49 -39.29,7.42 -99.96,71.62 -50.63,105.4 25.97,17.76 62.3,9.45 77.84,-17 14.97,-25.44 6.52,-60.57 -13.03,-80.82 -1,-0.98 0.37,-2.8 1.56,-1.94 64.23,46.19 10.79,149.65 -64.71,114.87zm195.61 -34.78c-22.86,23.61 -54.17,22.14 -78.05,0.64 -24.42,-21.95 -32.35,-56.69 -21.8,-87.31 0.41,-1.34 2.62,-0.9 2.43,0.54 -6.05,39.52 34.42,118.02 82.64,82.68 25.42,-18.61 29.54,-55.66 9.77,-79.07 -19.05,-22.56 -55.03,-26.23 -80.59,-14.47 -1.26,0.62 -2.48,-1.26 -1.3,-2.09 64.85,-45.36 144.77,39.35 86.9,99.08zm28.37 -197.29c15.01,29.26 3.56,58.44 -24.51,74.13 -28.66,16.04 -64.06,12.33 -89.66,-7.43 -1.12,-0.83 0,-2.81 1.3,-2.15 35.47,18.46 122.82,5.39 104.91,-51.63 -9.45,-30.05 -43.23,-45.86 -71.74,-34.68 -27.51,10.79 -42.53,43.61 -39.63,71.64 0.11,1.36 -2.03,1.92 -2.45,0.55 -22.03,-76 83.9,-124.4 121.79,-50.43zm-151.59 108.85c-16.98,0 -30.75,-13.8 -30.75,-30.79 0,-17.02 13.76,-30.76 30.75,-30.76 16.98,0 30.76,13.74 30.76,30.76 0,16.98 -13.78,30.79 -30.76,30.79zm-500.48 -678.64c51.08,169.94 78.93,348.85 69.95,526.54 -9.32,183.51 -55.25,363.79 -131.39,530.78 -0.62,1.32 -2.75,0.62 -2.17,-0.72 46.7,-102.82 83.11,-210.79 103.5,-321.99 67.3,-367.23 -26.36,-734.86 -179.13,-1068.83 -1.01,-2.3 2.41,-3.99 3.52,-1.71 53.83,108.38 100.92,219.96 135.72,335.93zm1629.37 -682.24c-135.28,349.1 -292.01,689.7 -484.29,1011.35 -281.81,471.22 -632.53,908.33 -1057.32,1258.67 -438.54,361.72 -946.4,633.09 -1486.92,807.71 -4.31,1.36 -7.21,-5.03 -2.9,-6.46 332.49,-107.91 655.1,-250.07 951.71,-435.58 979.65,-612.7 1624.16,-1594.05 2068.47,-2640.17 3.02,-7.17 14.09,-2.84 11.24,4.48zm-1155.57 1164.13c32.44,-5.12 56.62,14.86 62.76,46.41 6.32,32.18 -8.21,64.74 -34.99,82.9 -1.16,0.79 -2.65,-0.89 -1.63,-1.94 28.56,-27.96 43.4,-114.99 -16.4,-115.72 -31.41,-0.39 -57.03,26.72 -55.3,57.32 1.69,29.47 28.2,54 55.67,60.01 1.41,0.28 1.28,2.52 -0.19,2.48 -79.06,-2.79 -92.04,-118.49 -9.92,-131.46zm-1552.81 1143.82c-6.22,0 -11.34,-5.07 -11.34,-11.29 0,-6.23 5.12,-11.3 11.34,-11.3 6.25,0 11.31,5.07 11.31,11.3 0,6.23 -5.07,11.29 -11.31,11.29zm45.3 32.54c-8.41,8.66 -19.93,8.16 -28.71,0.25 -8.98,-8.11 -11.9,-20.86 -8.04,-32.08 0.19,-0.51 0.98,-0.32 0.92,0.17 -2.22,14.55 12.67,43.36 30.39,30.41 9.28,-6.87 10.82,-20.48 3.58,-29.09 -7,-8.27 -20.22,-9.64 -29.62,-5.31 -0.47,0.22 -0.92,-0.47 -0.47,-0.77 23.81,-16.66 53.17,14.5 31.95,36.43zm-58.76 -48.92c0.19,0.51 -0.54,0.85 -0.81,0.38 -6.95,-12.94 -36.19,-27.04 -42.58,-6.01 -3.33,11.11 3.66,22.88 14.61,25.38 10.62,2.45 21.97,-4.42 26.88,-13.56 0.23,-0.45 1.02,-0.17 0.87,0.3 -9.06,27.68 -51.27,20.49 -47.47,-9.86 1.49,-11.98 11.03,-18.45 22.84,-17.4 12,1.02 21.99,9.47 25.65,20.77zm1551.18 -958.45c0.72,-1.22 2.79,-0.49 2.37,0.92 -24.59,75.15 -139.4,55.53 -129.05,-26.94 4.05,-32.61 30,-50.27 62,-47.43 32.66,2.88 59.89,25.85 69.93,56.62 0.45,1.36 -1.58,2.34 -2.3,1.04 -18.93,-35.19 -98.49,-73.6 -115.78,-16.38 -9.07,30.11 9.87,62.25 39.77,69.06 28.81,6.53 59.7,-12.1 73.06,-36.89zm-1524.46 919.63c2.34,11.78 -3.01,23.78 -12.84,30.47 -0.43,0.3 -1.01,-0.36 -0.62,-0.72 10.5,-10.3 15.95,-42.29 -6.01,-42.53 -11.56,-0.19 -20.98,9.79 -20.35,21.05 0.64,10.85 10.35,19.82 20.48,22.05 0.47,0.11 0.43,0.96 -0.1,0.92 -29.05,-1.02 -33.77,-43.57 -3.63,-48.33 11.93,-1.86 20.8,5.51 23.06,17.1zm2391.82 2086.76c0.06,0.94 -1.41,1.3 -1.69,0.34 -15.05,-51.91 57.39,-85.01 83.28,-34.44 10.28,19.98 2.41,39.94 -16.76,50.69 -19.58,10.94 -43.78,8.45 -61.3,-5.1 -0.79,-0.58 0,-1.88 0.89,-1.43 24.23,12.57 83.95,3.63 71.72,-35.32 -6.46,-20.54 -29.56,-31.41 -49.03,-23.76 -18.81,7.42 -29.07,29.82 -27.1,49.03zm-131.95 -506.09c43.1,-41.74 108.53,1.28 130.48,27.73 -27,27.92 -122.29,33.33 -131.71,-23.27 12.01,8.91 51.65,14.73 63.79,12.56 -10.62,-6.21 -40.91,-18.53 -62.56,-17.02zm519.37 -173.28c11.9,-1.92 20.8,5.46 23.05,17.06 2.35,11.82 -2.96,23.8 -12.86,30.43 -0.41,0.3 -0.98,-0.3 -0.58,-0.68 10.49,-10.32 15.95,-42.25 -6.03,-42.52 -11.56,-0.17 -20.98,9.79 -20.31,21.05 0.62,10.83 10.37,19.89 20.46,22.07 0.48,0.07 0.48,0.92 -0.05,0.92 -29.11,-1.02 -33.85,-43.55 -3.67,-48.33zm-29.32 35.11c11.99,1.06 22.01,9.51 25.68,20.83 0.17,0.47 -0.57,0.81 -0.83,0.36 -6.97,-12.95 -36.19,-27.1 -42.58,-5.99 -3.33,11.05 3.66,22.86 14.63,25.33 10.58,2.43 21.93,-4.42 26.88,-13.54 0.19,-0.47 1,-0.19 0.85,0.34 -9.06,27.64 -51.25,20.41 -47.43,-9.91 1.47,-11.96 11.02,-18.47 22.78,-17.42zm-266.76 419.48c-75.62,44.44 -286.16,-1.18 -272.49,-129.84 20.73,26.55 103.4,63.05 131.12,65.69 -19.24,-19.94 -77.73,-65.07 -125.79,-74.79 118.96,-64.83 235.34,68.2 267.16,138.93zm351.17 -349.8c-8.42,8.66 -19.9,8.13 -28.68,0.27 -8.98,-8.12 -11.9,-20.86 -8.06,-32.1 0.21,-0.51 1,-0.3 0.92,0.21 -2.2,14.52 12.65,43.4 30.37,30.37 9.32,-6.79 10.85,-20.43 3.58,-29.05 -6.99,-8.34 -20.22,-9.62 -29.56,-5.27 -0.53,0.17 -0.94,-0.49 -0.53,-0.83 23.8,-16.63 53.19,14.46 31.95,36.41zm-45.28 -32.5c-6.25,0 -11.3,-5.02 -11.3,-11.31 0,-6.23 5.05,-11.31 11.3,-11.31 6.23,0 11.29,5.09 11.29,11.31 0,6.29 -5.06,11.31 -11.29,11.31zm-635.95 364.4c34.09,-5.9 51.34,35.84 53.21,55.58 -21.95,4.54 -69.14,-23.86 -55.24,-53.85 2.86,8.19 19.84,23.78 26.32,26.7 -3.05,-6.4 -13.46,-22.11 -24.28,-28.43zm201 -362.28c-12.43,18.64 -65.9,31.69 -77.12,0.6 7.76,3.73 30.84,2.92 37.49,0.44 -6.65,-2.41 -25.12,-6.23 -37.24,-3.11 20.07,-28.17 61.66,-10.66 76.88,2.07zm408.39 43.17c-11.02,-5.1 -14.31,-16.1 -9.77,-27.06 4.67,-11.05 15.74,-18.07 27.6,-18.17 0.51,0 0.66,0.83 0.13,0.92 -14.44,2.73 -36.74,26.34 -18.62,38.71 9.54,6.55 22.93,3.52 28.58,-6.2 5.5,-9.37 2.41,-22.25 -4.77,-29.71 -0.37,-0.38 0.15,-1.04 0.57,-0.7 23.61,16.95 3.95,54.96 -23.72,42.2zm38.41 -66.96c0.07,0.51 -0.74,0.72 -0.89,0.21 -8.1,-27.9 30.82,-45.72 44.76,-18.53 5.51,10.73 1.26,21.5 -9.02,27.25 -10.53,5.89 -23.54,4.5 -32.95,-2.73 -0.42,-0.32 0,-1.04 0.47,-0.8 13.03,6.78 45.13,1.98 38.56,-18.98 -3.48,-11.01 -15.91,-16.87 -26.36,-12.76 -10.11,3.97 -15.63,16.04 -14.57,26.34zm-2568.02 -679.36c114.78,-67.39 236.71,-126.87 371.54,-170.81 132.84,-43.29 288.04,-75.35 438.07,-83.54 147.07,-7.97 300.58,-1.6 449.25,39.95 162.78,45.47 314.08,131.18 443.64,227.94 99.43,74.22 175.69,160.8 254.75,248.05 4.89,5.44 -178.12,-194.09 -431.35,-331.06 -139.99,-75.77 -294.63,-129.5 -452.78,-152.78 -153.36,-22.67 -306.42,-17.86 -449.81,4.82 -148.8,23.54 -284.28,67.9 -415.32,119.62 -72.57,28.62 -141.48,62.25 -206.57,99.28 -1.09,0.6 -2.49,-0.84 -1.43,-1.47zm541.34 51.07c-16.93,0 -30.69,-13.75 -30.69,-30.77 0,-16.98 13.76,-30.76 30.69,-30.76 17.08,0 30.84,13.78 30.84,30.76 0,17.02 -13.76,30.77 -30.84,30.77zm123.27 88.48c-22.88,23.57 -54.17,22.14 -78.06,0.64 -24.4,-21.96 -32.33,-56.68 -21.84,-87.29 0.47,-1.34 2.67,-0.91 2.44,0.57 -6.02,39.5 34.44,117.98 82.73,82.62 25.33,-18.57 29.49,-55.62 9.72,-79.07 -19.08,-22.53 -55.02,-26.19 -80.61,-14.42 -1.24,0.54 -2.48,-1.3 -1.3,-2.13 64.81,-45.36 144.79,39.39 86.91,99.08zm1472.27 1166.77c11.61,0 21.07,9.41 21.07,21.01 0,2.43 -0.52,4.65 -1.24,6.82l-39.65 0c-0.74,-2.17 -1.22,-4.39 -1.22,-6.82 0,-11.6 9.45,-21.01 21.05,-21.01zm63.73 27.83l-24.38 0c8.4,-2.41 16.72,-2.22 24.38,0zm-82 -120.26c22.22,-3.49 38.73,10.17 42.95,31.75 4.33,22.03 -5.63,44.25 -23.95,56.63 -0.81,0.62 -1.8,-0.56 -1.11,-1.24 19.55,-19.19 29.69,-78.67 -11.18,-79.16 -21.53,-0.3 -39.07,18.24 -37.83,39.18 1.13,20.15 19.26,36.92 38.09,41.01 0.92,0.2 0.85,1.73 -0.17,1.69 -54.07,-1.85 -62.93,-80.98 -6.79,-89.87zm27.75 -1129.91c213.78,13.74 229.33,370.17 135.68,481.22 -106.55,-71.74 -291.11,-298.94 -152,-475.01 2.43,81.21 59.61,189.25 86.86,226.3 3.48,-45.98 -33.04,-191.15 -70.53,-232.52zm-1453.4 -141.74c15.01,29.3 3.58,58.46 -24.5,74.13 -28.66,16.02 -64.05,12.39 -89.66,-7.38 -1.11,-0.89 0,-2.86 1.28,-2.18 35.47,18.43 122.84,5.4 104.88,-51.66 -9.41,-29.96 -43.16,-45.87 -71.72,-34.65 -27.47,10.79 -42.51,43.59 -39.59,71.59 0.11,1.43 -2.03,2.02 -2.45,0.58 -22.05,-75.97 83.9,-124.38 121.76,-50.42zm-320.05 55.11c4.08,-32.65 30,-50.29 62,-47.47 32.67,2.88 59.91,25.85 69.91,56.64 0.49,1.33 -1.56,2.3 -2.27,1.04 -18.94,-35.23 -98.46,-73.6 -115.78,-16.38 -9.09,30.07 9.88,62.29 39.77,69.03 28.81,6.57 59.71,-12.05 73.09,-36.89 0.66,-1.21 2.79,-0.43 2.32,0.92 -24.55,75.18 -139.41,55.56 -129.03,-26.89zm3238.69 1336.79l-24.59 0c5.42,-10.96 11.31,-21.88 17.79,-32.83 1.73,10.79 4.1,21.77 6.79,32.83zm-3430.84 -1680.74c-2.11,1.62 -4.99,-1.34 -2.88,-2.97 162.47,-125.04 312.73,-267.01 440.12,-427.83 420.63,-531.21 583.65,-1200.1 623.26,-1865.43 0.27,-4.57 7.27,-4.31 7.1,0.27 -6.02,219.51 -25.62,438.44 -68.57,653.99 -62.94,315.75 -170.72,626.2 -336.49,903.28 -171.11,286.1 -398.28,535.92 -662.54,738.69zm-21.01 517.6c2.76,83.24 -46.51,266.44 -191.81,260.21 41.75,-32.12 76.82,-103.2 85.94,-131.52 -25.53,15.55 -87.93,89.87 -95.39,125.3 -73.96,-117.55 107.4,-261.08 201.26,-253.99zm1072.72 -797.55c153.25,-47.67 328.6,-213.87 384.67,-285.23 -89.34,17.66 -346.31,164.16 -405.15,257.48 -87.23,-414.25 583.05,-632.91 844.01,-513.48 -80.08,240.91 -414.66,712.62 -823.53,541.23zm1633.21 1674.6c0.28,-13.82 0.17,-27.69 -0.47,-41.57 -4.77,-101.77 -32.82,-201.67 -74.56,-294.22 -43.25,-96.07 -102.3,-182.15 -166.86,-264.9 -35.74,-45.86 -75.16,-88.98 -116.89,-129.41 -0.69,-0.66 0.34,-1.68 1.04,-1.02 75.3,71.17 145.11,147.47 203.65,233.17 57.65,84.45 109.24,184.17 139.67,281.98 16.77,53.96 30.03,109.56 36.21,165.67 2.07,-9.49 3.31,-19.35 3.41,-29.8 69.44,105.83 72.71,236.18 35.57,366.18l-306.53 0c-4.01,-21.97 -23.52,-50.38 -66.22,-91.86 103.52,-64.96 253.17,-107 311.99,-194.22zm-2993.26 286.08l-38.39 0c-90.14,-239.09 -375.06,-212.03 -375.06,-212.03 104.29,-24.91 216.68,-7.44 309.45,68.97 45.92,37.88 82.18,87.8 104.01,143.06zm3186.52 -804.98c149.82,24.27 368.38,-42.4 445.9,-79.19 -83.05,-22.69 -362.34,-7.14 -451.53,47.05 100.91,-387.38 760.44,-289.7 930.94,-78.57 -169.4,170.08 -651.54,428.23 -925.31,110.71zm-1988.77 794.57c3.9,3.41 7.61,6.97 11.44,10.41l-87.85 0c-49.44,-41.33 -101.85,-79.16 -157.14,-112.97 -178.66,-109.11 -381.07,-176.46 -586.67,-212.01 -213.32,-36.89 -427.86,-35.59 -643.07,-20.98 -119.17,8.04 -238.05,25.45 -354.88,49.93 -1.92,0.43 -2.43,-2.52 -0.57,-2.94 207.91,-46.3 418.18,-77.16 631.51,-78.1 210.11,-0.89 439.29,26.12 640.72,86.89 197.42,59.69 390.6,144.21 546.5,279.76zm-1840.12 -1310.08c853.29,-134.57 1648.28,-1313.47 994.7,-1834.68 180.98,375.71 203.97,1006.11 -160.82,1213.18 88.83,-177.18 -129.54,-358.03 -236.32,-537.56 273.71,-83.63 92.36,-150.63 52.66,-339.58 82.45,-109.01 162.49,-28.67 243.59,-45.64 -163.34,-293.5 -153.57,-799.63 -22.97,-1089.59 947.32,854.05 617.81,2445.82 -870.84,2633.86zm1128.36 1320.49c-302.31,-182.07 -671.67,-282 -1001.6,-230.63 505,-94.59 930.92,9.12 1247,230.63l-245.4 0zm3278.75 -50.54c81.28,-5.82 152.17,13.56 213.03,50.54l-168.78 0c-15.02,-21.18 -29.97,-38.56 -44.25,-50.54zm1603.18 -132.93c35.26,34.38 105.72,57.39 133.15,62.1 -17.79,-21.52 -94.87,-69.46 -128.68,-71.68 99.04,-84.07 256,64.83 261.87,152.66 -76.67,13.62 -252.85,-7.7 -266.35,-143.08l0 0z"/>
 </g>
</svg>
